<?xml version="1.0" standalone="no"?><!DOCTYPE svg PUBLIC "-//W3C//DTD SVG 1.1//EN" "http://www.w3.org/Graphics/SVG/1.1/DTD/svg11.dtd"><svg t="1542013523108" class="icon" style="" viewBox="0 0 1024 1024" version="1.1" xmlns="http://www.w3.org/2000/svg" p-id="1542" xmlns:xlink="http://www.w3.org/1999/xlink" width="200" height="200"><defs><style type="text/css"></style></defs><path d="M510.976 681.472c19.456 0 35.84 15.872 35.84 35.84 0 19.456-15.872 35.84-35.84 35.84-19.456 0-35.84-15.872-35.84-35.84 0.512-19.968 16.384-35.84 35.84-35.84zM482.816 780.288c-27.136 56.832-58.88 130.048-58.88 162.816 0 43.52 77.824 75.776 87.04 79.36 9.216-3.584 87.04-35.84 87.04-79.36 0-32.768-31.744-105.984-58.88-162.816-17.408 8.192-38.4 8.192-56.32 0zM736.768 635.904c-10.752 13.824-7.68 33.28 5.632 44.032 95.232 72.704 150.016 183.296 150.016 303.104 0 17.408 13.824 31.232 31.232 31.232 17.408 0 31.232-14.336 31.232-31.232 0-139.264-63.488-268.288-174.592-352.768l-0.512-0.512c-5.12-4.096-11.776-6.144-18.432-6.144-1.536 0-3.072 0-4.096 0.512-8.192 1.024-15.872 5.12-20.48 11.776z" p-id="1543" fill="#1296db"></path><path d="M98.816 1014.272c17.408 0 31.232-14.336 31.232-31.232 0-101.888 39.936-197.12 111.616-269.312 72.192-72.192 167.936-111.616 269.312-111.616 163.328 0 296.448-133.12 296.448-296.448s-133.12-296.448-296.448-296.448-296.448 133.12-296.448 296.448c0 99.84 50.176 192 134.144 247.296l16.384 10.752-18.432 7.168C179.712 637.952 67.072 803.84 67.072 983.04c0 17.408 14.336 31.232 31.744 31.232z m178.688-709.12c0-129.024 104.96-233.984 233.984-233.984 129.024 0 233.984 104.96 233.984 233.984 0 129.024-104.96 233.984-233.984 233.984-129.024 0-233.984-104.96-233.984-233.984z" p-id="1544" fill="#1296db"></path></svg>