<?xml version="1.0" standalone="no"?><!DOCTYPE svg PUBLIC "-//W3C//DTD SVG 1.1//EN" "http://www.w3.org/Graphics/SVG/1.1/DTD/svg11.dtd"><svg t="1542013573567" class="icon" style="" viewBox="0 0 1078 1024" version="1.1" xmlns="http://www.w3.org/2000/svg" p-id="2131" xmlns:xlink="http://www.w3.org/1999/xlink" width="210.546875" height="200"><defs><style type="text/css"></style></defs><path d="M967.963782 1023.999461H110.185754a109.862399 109.862399 0 0 1-110.185683-109.646877V109.91628A110.077922 110.077922 0 0 1 110.185754 0h711.222988v0.538805l256.740722 231.147471v682.666308A109.862399 109.862399 0 0 1 967.963782 1023.999461zM821.408742 73.816325v161.372186a17.080128 17.080128 0 0 0 17.241769 16.702964h182.654995z m-16.972367 228.453445a33.971674 33.971674 0 0 1-34.214136-33.675331v-218.216144H112.071572a60.831118 60.831118 0 0 0-60.884998 60.884998v801.742278a60.777237 60.777237 0 0 0 60.884998 60.615595h853.736988a60.992759 60.992759 0 0 0 61.154401-60.615595V302.26977h-222.526586z m11.853716 266.978023l-111.802098 84.053626a28.233397 28.233397 0 0 1-16.433562 5.11865 25.943475 25.943475 0 0 1-20.205198-9.15969 23.087807 23.087807 0 0 1 4.04104-34.214136l104.797629-78.665573-104.797629-78.665573a23.087807 23.087807 0 0 1-4.04104-34.214136 27.101906 27.101906 0 0 1 36.63876-4.04104l111.802098 84.053626a40.410397 40.410397 0 0 1 0 65.734246z m-300.922756 137.934155a24.515641 24.515641 0 0 1-47.145464-13.470132l94.56033-328.132424a24.758103 24.758103 0 0 1 30.442499-16.702964 24.38094 24.38094 0 0 1 16.702964 30.173096zM404.373444 649.529782a25.45855 25.45855 0 0 1-19.666393 8.890287 26.051236 26.051236 0 0 1-15.894756-5.11865l-109.108072-82.976015a40.410397 40.410397 0 0 1-16.433562-32.328318 40.949202 40.949202 0 0 1 16.433562-32.59772l109.108072-82.976016a26.266758 26.266758 0 0 1 35.561149 3.771638 23.357209 23.357209 0 0 1-3.771637 33.944733l-102.103603 77.857365 102.103603 77.587962A23.357209 23.357209 0 0 1 404.373444 649.529782z" p-id="2132" fill="#13227a"></path></svg>