<?xml version="1.0" standalone="no"?><!DOCTYPE svg PUBLIC "-//W3C//DTD SVG 1.1//EN" "http://www.w3.org/Graphics/SVG/1.1/DTD/svg11.dtd"><svg t="1542013545755" class="icon" style="" viewBox="0 0 1024 1024" version="1.1" xmlns="http://www.w3.org/2000/svg" p-id="1892" xmlns:xlink="http://www.w3.org/1999/xlink" width="200" height="200"><defs><style type="text/css"></style></defs><path d="M922.472159 117.251908l-63.316031-80.512977c-5.471756-7.035115-17.978626-13.28855-27.358778-13.288549H168.151548c-9.380153 0-21.105344 6.253435-25.79542 14.851908L93.892006 117.251908" fill="#99C4FF" p-id="1893"></path><path d="M96.237044 148.519084C86.856892 148.519084 78.258418 143.829008 73.568342 135.230534s-4.690076-17.978626 0-26.577099L122.032464 28.140458C131.412617 11.725191 151.736281 0 170.496586 0H836.487426c17.978626 0 37.520611 10.161832 48.464122 24.232061l63.316031 82.076336c8.598473 11.725191 6.253435 28.140458-4.690077 36.738931s-27.358779 7.035115-36.738931-4.690076L844.30422 56.280916c-1.563359-1.563359-9.380153-3.126718-11.725191-3.908397H174.404983c-0.781679 0-7.035115 1.563359-7.816794 2.345038L118.905747 136.012214c-4.690076 7.816794-13.28855 12.50687-22.668703 12.50687z" fill="#3B3DC5" p-id="1894"></path><path d="M93.892006 934.10687c0 50.027481 183.694656 89.89313 410.381679 89.89313s410.381679-39.865649 410.38168-89.89313S730.960708 844.21374 504.273685 844.21374 93.892006 884.079389 93.892006 934.10687z" fill="#99C4FF" p-id="1895"></path><path d="M922.472159 125.068702l-94.583206 780.89771L508.182082 992.732824l-319.70687-86.766412L93.892006 125.068702" fill="#3E8CF7" p-id="1896"></path><path d="M512.090479 1016.183206c-2.345038 0-4.690076 0-7.035114-0.781679l-320.48855-86.766412c-10.161832-3.126718-17.978626-11.725191-18.760305-21.887023L70.441624 123.505344c-1.563359-9.380153 2.345038-18.760305 10.161832-24.232062s17.196947-7.035115 25.79542-3.126717c8.598473 3.908397 14.851908 11.725191 15.633588 21.105343l93.019847 765.264123 297.038168 80.512977 297.038168-80.512977L902.148495 117.251908c1.563359-14.070229 14.851908-24.232061 28.922137-22.668702 14.070229 1.563359 24.232061 14.851908 22.668702 28.922138l-95.364885 782.461068c-1.563359 10.161832-8.598473 19.541985-18.760305 21.887023l-320.48855 86.766412c-2.345038 1.563359-4.690076 1.563359-7.035115 1.563359z" fill="#3B3DC5" p-id="1897"></path><path d="M736.432464 812.164885L504.273685 875.480916l-232.158778-63.316031L203.327121 218.870229h601.893129" fill="#FFFFFF" p-id="1898"></path><path d="M508.182082 891.114504c-1.563359 0-3.126718 0-4.690076-0.78168l-233.722137-63.31603c-7.035115-1.563359-11.725191-7.816794-12.506871-14.851909L187.693533 222.778626c-0.781679-4.690076 0.781679-10.161832 3.908397-13.28855s7.816794-5.471756 13.288549-5.471755h606.583206c9.380153 0 17.196947 7.816794 17.196947 17.196946s-7.816794 17.196947-17.196947 17.196947H224.432464l65.661069 558.900763 218.088549 58.625954 229.032062-61.752671c9.380153-2.345038 17.978626 3.126718 21.105343 12.50687 2.345038 9.380153-3.126718 18.760305-11.725191 21.105343L512.872159 891.114504H508.182082z" fill="#3B3DC5" p-id="1899"></path><path d="M539.449258 875.480916l-241.538931-66.442748c-9.380153-3.126718-17.196947-11.725191-17.978626-21.887023l-68.787786-531.541985c-0.781679-7.816794 1.563359-14.851908 6.253435-20.323664 4.690076-5.471756 11.725191-8.598473 19.541984-8.598473H805.22025l-7.816794 52.372519H265.861472l63.31603 485.422901 242.320611 73.477862L539.449258 875.480916z" fill="#3B3DC5" p-id="1900"></path><path d="M508.963762 766.045802c-2.345038 0-5.471756 0-7.816794-0.78168l-128.19542-39.865649c-9.380153-3.126718-16.415267-11.725191-17.978626-21.105343L344.029411 615.181679c-0.781679-7.035115 0.781679-14.070229 5.471755-18.760305s10.161832-8.598473 17.196947-10.161832c7.035115-0.781679 13.28855 0.781679 18.760305 5.471756 5.471756 3.908397 8.598473 10.161832 10.161832 17.196946l9.380153 72.696183 105.526718 32.830535 109.435114-32.830535 18.760305-147.737404h-281.40458c-13.28855 0-24.232061-9.380153-25.79542-22.668702l-21.887022-172.751145c-0.781679-7.035115 1.563359-14.851908 6.253435-20.323665 4.690076-5.471756 11.725191-8.598473 19.541984-8.598473h354.882443c14.070229 0 25.79542 11.725191 25.79542 25.79542s-11.725191 25.79542-25.79542 25.79542H363.571395l15.633588 121.160305h288.439695c7.035115 0 14.851908 3.126718 19.541985 8.598473s7.035115 13.28855 6.253435 20.323665l-24.232061 193.856488c-1.563359 10.161832-8.598473 18.760305-17.978626 21.887023L515.998876 765.264122c-2.345038 0.781679-4.690076 0.781679-7.035114 0.78168z m396.31145-630.033588H95.455365c-9.380153 0-17.196947-7.816794-17.196947-17.196947S86.075212 101.618321 95.455365 101.618321h809.819847c9.380153 0 17.196947 7.816794 17.196947 17.196946s-7.816794 17.196947-17.196947 17.196947z" fill="#3B3DC5" p-id="1901"></path></svg>