<?xml version="1.0" standalone="no"?><!DOCTYPE svg PUBLIC "-//W3C//DTD SVG 1.1//EN" "http://www.w3.org/Graphics/SVG/1.1/DTD/svg11.dtd"><svg t="1542013413183" class="icon" style="" viewBox="0 0 1024 1024" version="1.1" xmlns="http://www.w3.org/2000/svg" p-id="1262" xmlns:xlink="http://www.w3.org/1999/xlink" width="200" height="200"><defs><style type="text/css"></style></defs><path d="M862.488606 784.304852c0-6.311105-1.771145-17.935645-13.754398-25.23321l-135.638312-82.896307c-11.927204-7.252726-31.387378-7.252726-43.280952 0L534.32236 758.903495c-11.983253 7.252726-13.754397 18.922105-13.754398 25.23321s1.759935 17.935645 13.754398 25.23321l135.638311 82.896307a41.722793 41.722793 0 0 0 21.634872 5.683357 42.294492 42.294492 0 0 0 21.634871-5.604889l135.515004-82.829048c11.915994-7.319985 13.754397-18.989364 13.754397-25.23321z m0 0" fill="#FBE8E9" p-id="1263"></path><path d="M705.910429 704.558492c-7.252726-4.416652-21.511564-4.416652-28.76429 0l-130.336087 79.589423L677.157349 863.849435c7.252726 4.416652 21.511564 4.416652 28.76429 0l130.336087-79.589422z m0 0" fill="#F09286" p-id="1264"></path><path d="M722.691466 927.251939c2.331634-7.185468 8.766046-12.241077 17.285478-13.451734l36.712022-5.358274a8.967822 8.967822 0 0 0 3.654388-2.645507l13.754397-27.878718-88.198532 53.874193c-7.252726 4.416652-21.511564 4.416652-28.76429 0L549.141686 853.50281h-28.506465c0.313874 6.501671 2.645508 17.027653 13.687139 23.787149l135.638311 82.896307a44.289832 44.289832 0 0 0 43.280953 0.067259l17.038862-10.469933-1.401222-1.434852c-6.176588-6.05328-8.519431-13.944964-6.176588-21.130431z m110.393892-54.759765l5.425533 10.974372 10.223317-6.243846a28.394367 28.394367 0 0 0 13.687139-23.843197h-28.450416l-12.868825 7.846844a21.825437 21.825437 0 0 1 11.983252 11.209778z m0 0" fill="#FBE8E9" p-id="1265"></path><path d="M755.367969 974.063971l-9.07992-8.889354-40.355201 24.605462c-7.252726 4.416652-21.511564 4.416652-28.764289 0l-130.403346-79.589422h-26.197251c0 6.311105 1.759935 17.935645 13.754398 25.23321l135.638311 82.896307a44.065637 44.065637 0 0 0 43.280953 0L754.235781 993.187852l2.589459-14.953844a11.62454 11.62454 0 0 0-1.446062-4.226086z m0 0" fill="#FBE8E9" p-id="1266"></path><path d="M890.244016 937.475256c4.158828-3.979471 2.970591-7.947732-2.645508-8.709997l-36.779281-5.358274c-5.683357-0.818314-12.330756-5.683357-14.830536-10.783806L819.521527 879.24046c-1.255495-2.5222-2.959381-3.844954-4.607218-3.844954s-3.284465 1.322754-4.607219 3.844954l-16.455954 33.371509c-2.5222 5.111659-9.214437 9.965492-14.830536 10.783806l-36.779281 5.302225c-5.683357 0.818314-6.938852 4.730526-2.836074 8.709997l26.623222 25.928216c4.03552 3.968261 6.624979 11.792686 5.683358 17.476044l-6.243846 36.655974c-0.695006 4.03552 0.885572 6.434412 3.721646 6.434412a7.846844 7.846844 0 0 0 3.721646-1.120978l32.867069-17.263058a20.312117 20.312117 0 0 1 9.147178-1.950501 20.984704 20.984704 0 0 1 9.147179 1.950501l32.743761 17.285478a8.014991 8.014991 0 0 0 3.721646 1.120978c2.836074 0 4.416652-2.398892 3.721647-6.434413L858.004695 980.857096c-0.941621-5.683357 1.580579-13.451733 5.672147-17.476043z m0 0" fill="#FBE8E9" p-id="1267"></path><path d="M890.244016 937.475256c4.158828-3.979471 2.970591-7.947732-2.645508-8.709997l-36.779281-5.358274c-5.683357-0.818314-12.330756-5.683357-14.830536-10.783806L819.521527 879.24046c-1.255495-2.5222-2.959381-3.844954-4.607218-3.844954s-3.284465 1.322754-4.607219 3.844954l-16.455954 33.371509c-2.5222 5.111659-9.214437 9.965492-14.830536 10.783806l-36.779281 5.302225c-5.683357 0.818314-6.938852 4.730526-2.836074 8.709997l26.623222 25.928216c4.03552 3.968261 6.624979 11.792686 5.683358 17.476044l-6.243846 36.655974c-0.695006 4.03552 0.885572 6.434412 3.721646 6.434412a7.846844 7.846844 0 0 0 3.721646-1.120978l32.867069-17.263058a20.312117 20.312117 0 0 1 9.147178-1.950501 20.984704 20.984704 0 0 1 9.147179 1.950501l32.743761 17.285478a8.014991 8.014991 0 0 0 3.721646 1.120978c2.836074 0 4.416652-2.398892 3.721647-6.434413L858.004695 980.857096c-0.941621-5.683357 1.580579-13.451733 5.672147-17.476043z m0 0" fill="#FBE8E9" p-id="1268"></path><path d="M552.560668 480.284467c-60.869094 56.755105-139.550524 58.402943-200.363569 0.336293C122.58722 488.120102 212.545687 150.302237 284.366733 61.106035c31.387378-38.953978 76.865447-61.911603 132.925546-28.27106 209.622845-183.481644 451.115089 462.526643 135.268389 447.449492z" fill="#F4B66E" p-id="1269"></path><path d="M599.944399 248.645618c-88.198532 28.977276-157.295603-1.120978-209.622845-30.075834-13.799237 22.18415-51.766754 47.989059-82.29098 46.90171a287.373865 287.373865 0 0 0 12.050512 77.414726c57.03535 191.048244 213.557478 185.566662 267.633445-4.483911a301.004954 301.004954 0 0 0 12.207448-89.734272z" fill="#FBE8E9" p-id="1270"></path><path d="M506.241866 950.164724l-8.967822-181.5984s-12.711888-13.978593 0-22.498025l179.356445-120.292125s6.243846-8.127089 28.024445 0c3.564709 1.333964 11.646959 5.100449 22.666171 10.481142a811.102532 811.102532 0 0 0-17.139751-42.227233c-57.52858-16.724989-88.702972-45.365971-140.413677-44.43556-0.98646 53.806934-57.52858 178.168209-116.861934 220.51875-62.06854-43.280952-115.05716-161.420801-116.917983-220.51875-51.665866-0.930412-82.840258 27.721781-140.424887 44.379511C154.086695 688.696657 133.707319 780.571996 131.241168 900.662346a603.265404 603.265404 0 0 0 75.822937 39.503257l8.653949-102.45737 9.528311 5.156498 23.069723 113.409322c95.283112 33.192152 207.806861 42.37296 307.047025 27.587264z" fill="#EEB0B0" p-id="1271"></path></svg>